<svg version="1.0" xmlns="http://www.w3.org/2000/svg" width="2940.000000pt" height="1912.000000pt" viewBox="0 0 2940.000000 1912.000000" preserveAspectRatio="xMidYMid meet">
<g transform="translate(0.000000,1912.000000) scale(0.100000,-0.100000)" fill="#4f46e5" stroke="none">
<path d="M12287 15614 c-24 -24 -675 -133 -1102 -185 -75 -9 -123 -14 -362 -39 -381 -41 -930 -80 -1403 -100 -625 -27 -847 -31 -2100 -40 -1999 -14 -2591 -32 -3505 -105 -213 -17 -539 -49 -660 -65 -140 -18 -458 -61 -520 -70 -363 -52 -913 -167 -1293 -271 -587 -161 -912 -347 -946 -542 -10 -52 2 -141 23 -168 71 -95 136 -144 277 -210 129 -60 232 -88 474 -131 95 -17 489 -16 620 1 95 12 254 40 385 66 125 26 369 90 697 184 198 57 265 75 468 126 80 20 161 40 180 45 19 5 80 19 135 30 55 12 116 26 135 31 38 10 322 68 460 94 104 20 152 28 300 54 63 11 129 22 145 25 303 55 905 132 1290 166 66 6 167 15 225 20 279 25 687 46 1190 61 667 20 1493 -10 2275 -82 465 -42 824 -128 1092 -260 228 -112 317 -242 250 -367 -38 -71 -94 -120 -191 -167 -227 -111 -621 -151 -1186 -121 -173 10 -335 19 -360 21 -47 4 -282 17 -620 35 -107 5 -432 15 -722 22 -872 19 -1880 -12 -2793 -88 -731 -60 -1271 -229 -1421 -445 -26 -38 -29 -50 -29 -123 0 -75 2 -84 33 -129 96 -138 334 -240 707 -301 242 -40 501 -59 1190 -88 386 -16 1927 -16 2310 0 700 30 1385 73 1800 112 61 6 160 15 220 21 61 5 146 14 190 19 44 5 125 14 180 20 469 51 886 108 1175 159 190 34 497 109 625 152 250 86 475 195 610 297 95 72 200 187 238 262 79 153 87 259 27 384 -40 84 -83 133 -175 201 -88 64 -137 92 -413 231 -273 139 -378 210 -440 301 -18 25 -22 46 -22 106 0 74 0 75 44 123 85 95 224 156 436 193 364 63 707 30 1019 -95 84 -34 352 -170 401 -204 26 -18 231 -152 430 -282 205 -133 449 -259 640 -329 427 -158 760 -243 1190 -303 680 -96 1268 -89 1940 24 182 30 542 130 665 184 217 96 281 131 390 214 72 54 164 158 202 227 25 46 27 59 27 160 0 100 -3 115 -29 169 -29 61 -37 72 -94 138 -62 71 -211 162 -331 202 -342 115 -741 96 -1260 -60 -135 -41 -218 -70 -540 -191 -275 -104 -553 -175 -835 -214 -135 -19 -461 -17 -563 4 -228 46 -388 142 -443 265 -33 76 -16 215 34 270 9 10 17 23 17 28 0 17 123 130 184 169 74 47 275 145 299 145 9 0 17 5 17 10 0 21 -93 10 -149 -17 -95 -45 -234 -124 -266 -150 -122 -100 -135 -115 -192 -221 -19 -36 -23 -58 -23 -133 0 -76 3 -95 20 -116 11 -14 20 -31 20 -38 0 -24 108 -111 187 -152 72 -38 100 -49 193 -74 203 -56 564 -51 890 10 173 33 520 131 605 171 74 35 528 193 645 224 190 51 314 77 457 96 117 16 420 7 518 -15 287 -64 463 -184 553 -375 21 -46 26 -69 25 -140 0 -75 -4 -93 -32 -153 -146 -304 -704 -547 -1491 -646 -261 -33 -311 -36 -735 -36 -426 0 -470 2 -760 36 -288 34 -553 87 -875 176 -30 8 -68 18 -85 23 -77 21 -347 118 -420 151 -22 10 -68 29 -102 43 -56 23 -195 96 -313 164 -25 14 -149 95 -277 179 -300 197 -287 189 -440 272 -117 63 -181 91 -368 162 -163 62 -345 89 -597 89 -227 0 -340 -14 -538 -68 -162 -44 -310 -142 -346 -227 -17 -41 -17 -117 -1 -163 19 -51 92 -128 175 -184 42 -28 196 -113 343 -189 147 -75 292 -154 323 -174 59 -39 176 -151 176 -168 0 -6 6 -18 14 -26 37 -44 62 -211 39 -257 -6 -10 -13 -35 -17 -55 -4 -21 -13 -42 -21 -49 -8 -7 -15 -18 -15 -24 0 -16 -55 -95 -99 -141 -99 -104 -200 -178 -339 -248 -296 -149 -659 -254 -1147 -332 -55 -8 -128 -20 -162 -26 -111 -17 -581 -76 -803 -99 -47 -5 -125 -14 -175 -19 -733 -79 -1447 -128 -2380 -161 -361 -13 -1688 -13 -2045 0 -999 36 -1279 62 -1590 151 -162 47 -275 106 -343 179 -102 110 -103 200 -3 307 185 200 709 341 1451 393 361 25 441 30 635 40 496 24 675 30 1160 35 818 9 1541 -11 2440 -69 713 -47 1207 10 1438 165 56 38 112 89 112 103 0 5 7 17 16 27 18 20 29 112 20 161 -9 49 -92 137 -185 197 -44 28 -90 55 -103 60 -13 5 -48 20 -78 34 -134 62 -385 133 -580 167 -230 39 -298 47 -635 80 -517 50 -1208 74 -1870 67 -591 -7 -877 -19 -1380 -57 -346 -26 -974 -96 -1263 -140 -259 -40 -283 -45 -517 -86 -209 -37 -469 -88 -640 -125 -55 -12 -116 -25 -135 -29 -207 -45 -678 -164 -885 -225 -597 -174 -879 -233 -1223 -254 -385 -24 -795 61 -996 207 -65 48 -82 65 -124 127 -22 34 -27 51 -26 107 0 49 5 72 17 86 9 10 17 22 17 26 0 17 69 91 122 131 73 55 204 126 294 160 106 41 307 111 335 118 13 3 40 10 59 15 389 110 746 188 1215 267 100 16 161 25 375 55 252 35 331 44 705 81 436 42 1008 75 1760 99 171 6 904 14 1630 20 2099 15 2819 42 3815 141 155 15 730 87 840 104 203 33 227 37 275 45 28 5 77 14 110 20 33 5 137 26 231 45 94 19 178 35 187 35 9 0 17 5 17 10 0 11 -162 14 -173 4z"/>
</g>
</svg>
